<?xml version="1.0" standalone="no"?><!DOCTYPE svg PUBLIC "-//W3C//DTD SVG 1.1//EN" "http://www.w3.org/Graphics/SVG/1.1/DTD/svg11.dtd"><svg t="1631960073262" class="icon" viewBox="0 0 1024 1024" version="1.1" xmlns="http://www.w3.org/2000/svg" p-id="2464" xmlns:xlink="http://www.w3.org/1999/xlink" width="200" height="200"><defs><style type="text/css"></style></defs><path d="M512 0c282.763636 0 512 229.236364 512 512s-229.236364 512-512 512S0 794.763636 0 512 229.236364 0 512 0z m273.524364 322.746182a69.818182 69.818182 0 0 0-98.746182 0L439.947636 569.6l-82.292363-82.292364a69.818182 69.818182 0 0 0-95.371637-3.141818l-3.351272 3.141818a69.818182 69.818182 0 0 0 0 98.746182l131.630545 131.653818a69.585455 69.585455 0 0 0 47.243636 20.410182h4.282182l4.282182-0.256a69.538909 69.538909 0 0 0 42.938182-20.154182L785.524364 421.469091a69.818182 69.818182 0 0 0 0-98.746182z" fill="#FFFFFF" p-id="2465"></path></svg>