<?xml version="1.0" standalone="no"?><!DOCTYPE svg PUBLIC "-//W3C//DTD SVG 1.1//EN" "http://www.w3.org/Graphics/SVG/1.1/DTD/svg11.dtd"><svg t="1632196503361" class="icon" viewBox="0 0 1024 1024" version="1.1" xmlns="http://www.w3.org/2000/svg" p-id="8433" xmlns:xlink="http://www.w3.org/1999/xlink" width="200" height="200"><defs><style type="text/css"></style></defs><path d="M957.338 414.413l-91.75-91.187a75.126 75.126 0 0 0-52.89-21.76h-94.055v-76.34c0-64.563-52.326-116.89-116.89-116.89H167.323c-64.564 0-116.89 52.327-116.89 116.89v475.802c0 61.235 47.155 111.411 107.11 116.378 0.256-90.266 73.78-163.636 164.096-163.636 90.522 0 164.148 73.626 164.148 164.148h52.787c0-90.522 73.625-164.148 164.147-164.148s164.147 73.626 164.147 164.148h5.274c59.187 0 107.161-47.668 107.161-106.496V466.995c-0.05-19.712-7.936-38.605-21.964-52.582z m-522.19 37.427c0 23.091-18.79 41.933-41.932 41.933H229.478c-16.947 0-30.72-13.773-30.72-30.72s13.773-30.72 30.72-30.72h144.18V297.267c0-16.947 13.772-30.72 30.72-30.72s30.72 13.773 30.72 30.72V451.84z m466.638 74.394h-116.48c-23.092 0-41.933-18.79-41.933-41.933V376.166c0-16.947 13.773-30.72 30.72-30.72s30.72 13.773 30.72 30.72v88.628h96.921c16.948 0 30.72 13.772 30.72 30.72s-13.721 30.72-30.668 30.72z" p-id="8434"></path><path d="M217.6 817.869a104.448 104.448 0 1 0 208.896 0 104.448 104.448 0 1 0-208.896 0zM598.272 817.869a104.448 104.448 0 1 0 208.896 0 104.448 104.448 0 1 0-208.896 0z" p-id="8435"></path></svg>