<?xml version="1.0" standalone="no"?><!DOCTYPE svg PUBLIC "-//W3C//DTD SVG 1.1//EN" "http://www.w3.org/Graphics/SVG/1.1/DTD/svg11.dtd"><svg t="1632196455301" class="icon" viewBox="0 0 1024 1024" version="1.1" xmlns="http://www.w3.org/2000/svg" p-id="6330" xmlns:xlink="http://www.w3.org/1999/xlink" width="200" height="200"><defs><style type="text/css"></style></defs><path d="M718.552126 423.76151h170.335509v-161.484565c0-47.144823-38.293879-85.25807-85.258071-85.25807H220.370436c-47.144823 0-85.25807 38.293879-85.258071 85.25807v499.44611c0 47.144823 38.293879 85.25807 85.258071 85.25807h581.633445c48.228612 0 87.064385-39.197037 87.064385-87.064385V599.696596h-170.335509a88.003669 88.003669 0 0 1-62.317869-150.285412c15.714941-15.714941 37.751984-25.649674 62.137238-25.649674z" p-id="6331"></path><path d="M734.267067 512.090316m-42.990299 0a42.990298 42.990298 0 1 0 85.980597 0 42.990298 42.990298 0 1 0-85.980597 0Z" p-id="6332"></path></svg>