<?xml version="1.0" standalone="no"?><!DOCTYPE svg PUBLIC "-//W3C//DTD SVG 1.1//EN" "http://www.w3.org/Graphics/SVG/1.1/DTD/svg11.dtd"><svg t="1632196526810" class="icon" viewBox="0 0 1024 1024" version="1.1" xmlns="http://www.w3.org/2000/svg" p-id="10637" xmlns:xlink="http://www.w3.org/1999/xlink" width="200" height="200"><defs><style type="text/css"></style></defs><path d="M956.928 221.798v-31.641c0-45.261-36.66-81.92-81.92-81.92h-718.54c-45.262 0-81.92 36.659-81.92 81.92v31.641h882.38z m-882.38 61.44v546.048c0 45.261 36.658 81.92 81.92 81.92h718.54c45.26 0 81.92-36.659 81.92-81.92V283.238H74.548z m455.474 348.928h-32.204c-142.388 0-258.253-115.25-258.253-256.87 0-16.947 13.773-30.72 30.72-30.72s30.72 13.773 30.72 30.72c0 107.776 88.32 195.43 196.813 195.43h32.204c108.544 0 196.813-87.654 196.813-195.43 0-16.947 13.773-30.72 30.72-30.72s30.72 13.773 30.72 30.72c0 141.62-115.814 256.87-258.253 256.87z" p-id="10638"></path></svg>