<?xml version="1.0" standalone="no"?><!DOCTYPE svg PUBLIC "-//W3C//DTD SVG 1.1//EN" "http://www.w3.org/Graphics/SVG/1.1/DTD/svg11.dtd"><svg t="1632196545814" class="icon" viewBox="0 0 1024 1024" version="1.1" xmlns="http://www.w3.org/2000/svg" p-id="12795" xmlns:xlink="http://www.w3.org/1999/xlink" width="200" height="200"><defs><style type="text/css"></style></defs><path d="M908.8 119.616H115.2a51.2 51.2 0 0 0-51.2 51.2v576a51.2 51.2 0 0 0 51.2 51.2h263.424l116.736 100.224a25.6 25.6 0 0 0 33.28 0l116.928-100.096H908.8a51.2 51.2 0 0 0 51.2-51.2v-576a51.2 51.2 0 0 0-51.2-51.328z m-396.8 281.6a57.6 57.6 0 1 1-57.6 57.6 57.6 57.6 0 0 1 57.6-57.6z m-196.928 115.2a57.6 57.6 0 1 1 57.6-57.6 57.6 57.6 0 0 1-57.6 57.6z m393.856 0a57.6 57.6 0 1 1 57.6-57.6 57.6 57.6 0 0 1-57.6 57.6z" p-id="12796"></path></svg>