<?xml version="1.0" standalone="no"?><!DOCTYPE svg PUBLIC "-//W3C//DTD SVG 1.1//EN" "http://www.w3.org/Graphics/SVG/1.1/DTD/svg11.dtd"><svg t="1632196558103" class="icon" viewBox="0 0 1024 1024" version="1.1" xmlns="http://www.w3.org/2000/svg" p-id="14167" xmlns:xlink="http://www.w3.org/1999/xlink" width="200" height="200"><defs><style type="text/css"></style></defs><path d="M896 362.666667v426.666666c0 46.933333-38.4 85.333333-85.333333 85.333334H213.333333c-46.933333 0-85.333333-38.4-85.333333-85.333334v-426.666666h768z m-234.666667 285.866666H358.4c-25.6 4.266667-34.133333 29.866667-21.333333 51.2l4.266666 4.266667 85.333334 85.333333 4.266666 4.266667c12.8 8.533333 25.6 8.533333 38.4 0l4.266667-4.266667 4.266667-4.266666c8.533333-12.8 8.533333-25.6 0-38.4H469.333333l-29.866666-29.866667h226.133333c17.066667 0 25.6-17.066667 25.6-29.866667 4.266667-21.333333-12.8-38.4-29.866667-38.4z m-102.4-204.8l-8.533333 8.533334c-8.533333 12.8-8.533333 25.6 0 38.4l4.266667 4.266666 29.866666 29.866667H358.4c-17.066667 0-25.6 17.066667-25.6 29.866667s12.8 29.866667 25.6 29.866666H665.6c25.6-4.266667 34.133333-29.866667 21.333333-51.2H682.666667l-85.333334-85.333333-4.266666-4.266667c-8.533333-8.533333-25.6-8.533333-34.133334 0zM810.666667 149.333333c46.933333 0 85.333333 38.4 85.333333 85.333334v85.333333H128v-85.333333c0-46.933333 38.4-85.333333 85.333333-85.333334h597.333334z" p-id="14168"></path></svg>