<?xml version="1.0" standalone="no"?><!DOCTYPE svg PUBLIC "-//W3C//DTD SVG 1.1//EN" "http://www.w3.org/Graphics/SVG/1.1/DTD/svg11.dtd"><svg t="1632194904932" class="icon" viewBox="0 0 1024 1024" version="1.1" xmlns="http://www.w3.org/2000/svg" p-id="5402" xmlns:xlink="http://www.w3.org/1999/xlink" width="200" height="200"><defs><style type="text/css"></style></defs><path d="M786.31 1003.35c-11.093 0-23.893-3.755-34.987-9.217L511.707 874.325 270.043 994.133c-23.893 12.971-55.296 11.094-77.482-5.461s-34.987-46.08-29.526-73.728l49.835-258.048L23.089 479.915c-20.31-20.31-27.648-51.712-20.31-77.483 9.216-27.648 31.403-47.957 60.758-51.541l263.68-47.958 118.1-239.786c12.972-25.771 38.742-42.326 66.39-42.326s55.296 16.555 66.39 42.326l117.93 239.616 263.68 46.08c27.648 3.754 51.542 23.893 59.05 51.541 9.217 27.648 1.878 57.173-18.431 77.483L810.203 656.896l47.958 258.048c5.46 29.525-7.34 57.173-29.526 73.728-10.922 9.216-25.77 14.677-42.325 14.677z" fill="#FFBF00" p-id="5403"></path></svg>