<?xml version="1.0" standalone="no"?><!DOCTYPE svg PUBLIC "-//W3C//DTD SVG 1.1//EN" "http://www.w3.org/Graphics/SVG/1.1/DTD/svg11.dtd"><svg t="1632194952521" class="icon" viewBox="0 0 1024 1024" version="1.1" xmlns="http://www.w3.org/2000/svg" p-id="9053" xmlns:xlink="http://www.w3.org/1999/xlink" width="200" height="200"><defs><style type="text/css"></style></defs><path d="M0 793.6c0-172.8 102.4-326.4 262.4-390.4-96-89.6-102.4-236.8-12.8-326.4S480-25.6 576 64s102.4 236.8 12.8 326.4l-12.8 12.8c160 64 262.4 217.6 262.4 390.4 0 230.4-185.6 230.4-416 230.4S0 1024 0 793.6zM736 256h256c19.2 0 32 12.8 32 32s-12.8 32-32 32h-256c-19.2 0-32-12.8-32-32s12.8-32 32-32z" fill="#FC9447" p-id="9054"></path><path d="M896 160v256c0 19.2-12.8 32-32 32s-32-12.8-32-32v-256c0-19.2 12.8-32 32-32s32 12.8 32 32z" fill="#FC9447" p-id="9055"></path></svg>