<?xml version="1.0" standalone="no"?><!DOCTYPE svg PUBLIC "-//W3C//DTD SVG 1.1//EN" "http://www.w3.org/Graphics/SVG/1.1/DTD/svg11.dtd"><svg t="1632194870779" class="icon" viewBox="0 0 1024 1024" version="1.1" xmlns="http://www.w3.org/2000/svg" p-id="3144" xmlns:xlink="http://www.w3.org/1999/xlink" width="200" height="200"><defs><style type="text/css"></style></defs><path d="M393.137 811.145h-43.082a70.478 70.478 0 0 1-70.257-70.257V526.582a70.7 70.7 0 0 1 22.093-50.594l156.864-151.12a70.036 70.036 0 0 1 97.874 0l166.584 165.039a69.815 69.815 0 0 1 20.99 49.93v200.83a70.478 70.478 0 0 1-70.258 70.257h-43.082" fill="#EC657B" p-id="3145"></path><path d="M1006.617 565.646l-467.69-462.927a38.318 38.318 0 0 0-53.44 0L17.384 566.059a36.868 36.868 0 0 0-10.77 26.513A36.247 36.247 0 0 0 17.59 618.67a34.176 34.176 0 0 0 50.332 0l78.708-85.957v355.842a44.118 44.118 0 0 0 12.427 28.584 41.425 41.425 0 0 0 29.205 14.913H839.88a43.704 43.704 0 0 0 37.904-44.118V549.49l72.08 69.594a43.29 43.29 0 0 0 28.169 10.77 41.425 41.425 0 0 0 27.755-10.977 39.147 39.147 0 0 0 11.599-27.548 36.247 36.247 0 0 0-10.77-25.683zM431.221 673.144c0-17.191 22.99-27.548 45.153-27.548h97.764a23.405 23.405 0 0 1 18.641 27.755v188.692H431.221zM216.845 861.836v-399.96l289.977-279.414 300.747 297.226v382.148H662.581v-193.87a90.514 90.514 0 0 0-26.305-70.009 101.699 101.699 0 0 0-71.045-22.576h-106.67a89.686 89.686 0 0 0-97.556 97.763v188.692z" fill="#EC657B" p-id="3146"></path></svg>