<?xml version="1.0" standalone="no"?><!DOCTYPE svg PUBLIC "-//W3C//DTD SVG 1.1//EN" "http://www.w3.org/Graphics/SVG/1.1/DTD/svg11.dtd"><svg t="1631781438507" class="icon" viewBox="0 0 1024 1024" version="1.1" xmlns="http://www.w3.org/2000/svg" p-id="8138" xmlns:xlink="http://www.w3.org/1999/xlink" width="200" height="200"><defs><style type="text/css"></style></defs><path d="M512 512m-512 0a512 512 0 1 0 1024 0 512 512 0 1 0-1024 0Z" fill="#F56C6C" p-id="8139"></path><path d="M512 256a51.2 51.2 0 0 1 51.2 51.2v153.6h153.6a51.2 51.2 0 1 1 0 102.4h-153.6v153.6a51.2 51.2 0 1 1-102.4 0v-153.6h-153.6a51.2 51.2 0 1 1 0-102.4h153.6v-153.6a51.2 51.2 0 0 1 51.2-51.2z" fill="#FFFFFF" p-id="8140"></path></svg>