<?xml version="1.0" standalone="no"?><!DOCTYPE svg PUBLIC "-//W3C//DTD SVG 1.1//EN" "http://www.w3.org/Graphics/SVG/1.1/DTD/svg11.dtd"><svg t="1631788954563" class="icon" viewBox="0 0 1024 1024" version="1.1" xmlns="http://www.w3.org/2000/svg" p-id="4153" xmlns:xlink="http://www.w3.org/1999/xlink" width="200" height="200"><defs><style type="text/css"></style></defs><path d="M789.643636 153.274182H233.797818A92.672 92.672 0 0 0 141.032727 245.992727v31.138909h740.724364v-31.138909a91.834182 91.834182 0 0 0-92.16-92.718545m-161.885091-61.626182l13.824 97.326545H382.417455l13.824-97.326545h231.51709m7.493819-61.626182H388.189091c-25.320727 0-48.919273 20.712727-52.968727 46.08l-17.873455 129.024c-3.444364 25.320727 14.429091 46.08 39.749818 46.08h308.736c25.367273 0 43.194182-20.759273 39.749818-46.08l-17.873454-129.024c-2.839273-25.925818-26.484364-46.08-52.410182-46.08m169.890909 308.130909H218.856727c-33.978182 0-59.298909 27.648-55.854545 61.626182L213.643636 955.624727c2.885818 33.978182 33.419636 61.626182 67.397819 61.626182h463.127272c33.978182 0 64.465455-27.648 67.351273-61.626182L862.208 399.825455a56.878545 56.878545 0 0 0-57.018182-61.626182M388.747636 893.998545H295.982545l-31.092363-431.988363H388.189091v431.988363h0.605091z m184.878546 0H450.373818V462.010182h123.252364v431.988363z m154.391273 0h-92.765091V462.010182h123.298909l-30.533818 431.988363z" p-id="4154"></path></svg>